<?xml version="1.0" encoding="UTF-8"?>
<!DOCTYPE svg PUBLIC "-//W3C//DTD SVG 1.1//EN" "http://www.w3.org/Graphics/SVG/1.1/DTD/svg11.dtd">
<!-- Creator: CorelDRAW X7 -->
<svg xmlns="http://www.w3.org/2000/svg" xml:space="preserve" width="3.93701in" height="3.93701in" version="1.1" style="shape-rendering:geometricPrecision; text-rendering:geometricPrecision; image-rendering:optimizeQuality; fill-rule:evenodd; clip-rule:evenodd"
viewBox="0 0 3937 3937"
 xmlns:xlink="http://www.w3.org/1999/xlink">
 <defs>
  <style type="text/css">
   <![CDATA[
    .fil0 {fill:url(#id1)}
    .fil1 {fill:url(#id2);fill-opacity:0.701961}
   ]]>
  </style>
    <clipPath id="id0">
     <path d="M-93 8l4129 0 0 3945 -4129 0 0 -3945z"/>
    </clipPath>
  <linearGradient id="id1" gradientUnits="userSpaceOnUse" x1="1865.49" y1="3881.63" x2="2077.67" y2="79.6024">
   <stop offset="0" style="stop-opacity:1; stop-color:#6AC6DE"/>
   <stop offset="0.568627" style="stop-opacity:1; stop-color:#5CA1C9"/>
   <stop offset="1" style="stop-opacity:1; stop-color:#4D7CB4"/>
  </linearGradient>
  <linearGradient id="id2" gradientUnits="userSpaceOnUse" x1="1956.34" y1="2306.22" x2="1984.45" y2="3402.66">
   <stop offset="0" style="stop-opacity:1; stop-color:#DCEFF2"/>
   <stop offset="0.568627" style="stop-opacity:1; stop-color:#93D5EF"/>
   <stop offset="1" style="stop-opacity:1; stop-color:#49BBEC"/>
  </linearGradient>
 </defs>
 <g id="Layer_x0020_1">
  <metadata id="CorelCorpID_0Corel-Layer"/>
  <g id="_762555136">
   <g style="clip-path:url(#id0)">
    <image x="-93" y="8" width="4128" height="3944" xlink:href="Meezu Logo_Images\Meezu Logo_ImgID1.png"/>
   </g>
  </g>
  <g id="_762553280">
   <path class="fil0" d="M681 1486l0 2373 -680 0 0 -3741 481 0 1106 1304 308 -363 0 -957 2046 0 0 604 -919 0 0 -4 -497 0 0 2627 309 0 0 0 1107 0 0 530 -2046 0 0 -1667 -308 363 -907 -1069zm3261 -195l0 432 -919 0 0 -432 919 0zm0 1017l0 436 -919 0 0 -436 919 0z"/>
   <path class="fil1" d="M681 1981l0 1878 -680 0 0 -1539c133,-341 360,-454 680,-339zm1845 -131l0 1479 309 0 0 0 1105 0 0 530 -2044 0 0 -1508c164,-36 308,-114 389,-242 88,-139 167,-220 241,-259zm-783 522l-155 183 -176 -208c106,23 220,32 331,25zm2197 372l0 -218c-274,23 -483,-82 -656,-218l-261 0 0 436 917 0z"/>
  </g>
 </g>
</svg>
