<?xml version="1.0" encoding="UTF-8"?>
<svg width="24px" height="24px" viewBox="0 0 24 24" version="1.1" xmlns="http://www.w3.org/2000/svg" xmlns:xlink="http://www.w3.org/1999/xlink">
    <!-- Generator: Sketch 53.2 (72643) - https://sketchapp.com -->
    <title>Loupe Icon</title>
    <desc>Created with Sketch.</desc>
    <defs>
        <filter x="-0.9%" y="-1.5%" width="101.8%" height="103.0%" filterUnits="objectBoundingBox" id="filter-1">
            <feOffset dx="0" dy="2" in="SourceAlpha" result="shadowOffsetOuter1"></feOffset>
            <feGaussianBlur stdDeviation="2" in="shadowOffsetOuter1" result="shadowBlurOuter1"></feGaussianBlur>
            <feColorMatrix values="0 0 0 0 0   0 0 0 0 0   0 0 0 0 0  0 0 0 0.5 0" type="matrix" in="shadowBlurOuter1" result="shadowMatrixOuter1"></feColorMatrix>
            <feMerge>
                <feMergeNode in="shadowMatrixOuter1"></feMergeNode>
                <feMergeNode in="SourceGraphic"></feMergeNode>
            </feMerge>
        </filter>
    </defs>
    <g id="Samples" stroke="none" stroke-width="1" fill="none" fill-rule="evenodd">
        <g id="Sample-#3" transform="translate(-1310.000000, -27.000000)" fill="#FFFFFF" fill-rule="nonzero">
            <g id="Header" filter="url(#filter-1)" transform="translate(0.000000, -1.000000)">
                <g id="Top-Nav">
                    <path d="M1328.29499,45.7034836 C1328.68548,46.0988388 1329.31665,46.0988388 1329.70713,45.7034836 C1330.09762,45.3081284 1330.09762,44.6685538 1329.70713,44.2731986 L1326.62569,41.1935002 C1327.49718,40.0254641 1328.01311,38.5765393 1328.01311,37.0071032 C1328.01311,33.137187 1324.87617,30 1321.00656,30 C1317.13694,30 1314,33.137187 1314,37.0071032 C1314,40.8770194 1317.13694,44.0142064 1321.00656,44.0142064 C1322.58177,44.0142064 1324.03558,43.4943463 1325.2058,42.6168208 L1328.29499,45.7034836 Z M1316,37 C1316,34.2385763 1318.23858,32 1321,32 C1323.76142,32 1326,34.2385763 1326,37 C1326,39.7614237 1323.76142,42 1321,42 C1318.23858,42 1316,39.7614237 1316,37 Z" id="Loupe-Icon"></path>
                </g>
            </g>
        </g>
    </g>
</svg>